<?xml version="1.0" standalone="no"?>
<!DOCTYPE svg PUBLIC "-//W3C//DTD SVG 20010904//EN"
 "http://www.w3.org/TR/2001/REC-SVG-20010904/DTD/svg10.dtd">
<svg version="1.0" xmlns="http://www.w3.org/2000/svg"
 width="450.000000pt" height="450.000000pt" viewBox="0 0 450.000000 450.000000"
 preserveAspectRatio="xMidYMid meet">

<g transform="translate(0.000000,450.000000) scale(0.100000,-0.100000)"
fill="#000000" stroke="none">
<path d="M0 2250 l0 -2250 2250 0 2250 0 0 2250 0 2250 -2250 0 -2250 0 0
-2250z m1201 1328 c41 -23 79 -84 79 -128 0 -35 -36 -102 -67 -125 -17 -12
-49 -21 -85 -23 l-58 -4 0 -94 0 -94 180 0 180 0 0 43 c0 55 31 104 77 123 53
23 317 16 351 -8 41 -28 55 -57 53 -109 l-1 -49 80 0 80 0 0 43 c0 54 30 104
75 123 53 22 299 20 345 -4 33 -16 37 -16 72 1 32 16 57 18 185 15 118 -2 153
-6 171 -20 41 -28 55 -57 53 -109 l-1 -49 230 0 230 0 0 95 0 95 -51 0 c-35 0
-63 7 -87 22 -36 22 -71 85 -72 127 0 44 38 106 79 129 36 21 51 22 256 22
240 0 266 -5 307 -63 30 -42 34 -113 10 -157 -29 -54 -75 -80 -138 -80 l-54 0
0 -1050 0 -1050 54 0 c63 0 109 -26 138 -80 24 -44 20 -115 -10 -157 -41 -58
-67 -63 -310 -63 -211 0 -220 1 -252 23 -75 50 -96 118 -61 189 29 59 63 81
133 86 l58 4 0 94 0 94 -90 0 -90 0 0 -35 c0 -47 -22 -98 -51 -119 -20 -13
-53 -16 -195 -16 l-172 0 -31 31 c-27 27 -31 38 -31 85 l0 54 -111 0 c-76 0
-108 -3 -104 -11 15 -24 -6 -99 -36 -129 l-31 -30 -172 0 c-142 0 -175 3 -195
16 -29 21 -51 72 -51 119 l0 35 -185 0 -185 0 0 -45 c0 -56 -20 -97 -55 -113
-17 -8 -84 -12 -188 -12 -178 0 -193 4 -222 60 -8 16 -15 47 -15 70 l0 40 -75
0 -75 0 0 -94 0 -94 58 -4 c70 -5 104 -27 133 -86 35 -71 14 -139 -61 -190
-32 -21 -41 -22 -252 -22 -243 0 -269 5 -310 63 -31 43 -35 122 -9 165 31 48
77 72 139 72 l52 0 0 1050 0 1050 -52 0 c-62 0 -108 24 -139 72 -26 43 -22
122 9 165 41 58 64 63 306 63 206 0 220 -1 257 -22z"/>
<path d="M724 3526 c-18 -8 -36 -27 -44 -46 -11 -27 -11 -36 3 -66 9 -19 28
-39 43 -44 37 -14 410 -13 437 2 54 28 65 98 21 139 -25 24 -29 24 -227 26
-154 2 -209 0 -233 -11z"/>
<path d="M3350 3533 c-35 -13 -60 -47 -60 -82 1 -40 14 -62 47 -79 27 -15 400
-16 437 -2 15 5 34 25 43 44 14 30 14 39 3 67 -22 52 -54 59 -267 58 -103 0
-195 -3 -203 -6z"/>
<path d="M885 3288 c-3 -7 -4 -479 -3 -1048 l3 -1035 58 -3 57 -3 0 1051 0
1050 -55 0 c-35 0 -57 -5 -60 -12z"/>
<path d="M3500 2250 l0 -1051 58 3 57 3 0 1045 0 1045 -57 3 -58 3 0 -1051z"/>
<path d="M1509 3203 c-10 -11 -15 -56 -17 -154 -3 -138 -3 -139 23 -164 25
-26 26 -26 166 -23 126 3 142 5 155 22 21 30 20 298 -2 320 -24 24 -305 23
-325 -1z"/>
<path d="M2152 3208 c-8 -8 -12 -59 -12 -164 0 -129 2 -154 17 -165 12 -10 52
-14 158 -14 106 0 146 4 158 14 24 20 25 301 1 325 -13 13 -42 16 -163 16
-101 0 -151 -4 -159 -12z"/>
<path d="M2572 3208 c-8 -8 -12 -59 -12 -164 0 -129 2 -154 17 -165 12 -10 52
-14 158 -14 106 0 146 4 158 14 24 20 25 301 1 325 -13 13 -42 16 -163 16
-101 0 -151 -4 -159 -12z"/>
<path d="M1070 3040 c0 -19 7 -20 180 -20 173 0 180 1 180 20 0 19 -7 20 -180
20 -173 0 -180 -1 -180 -20z"/>
<path d="M1912 3043 c3 -15 16 -18 81 -21 72 -3 77 -1 77 18 0 18 -6 20 -81
20 -71 0 -80 -2 -77 -17z"/>
<path d="M2972 3043 c3 -16 23 -18 231 -21 222 -2 227 -2 227 18 0 19 -6 20
-231 20 -214 0 -230 -1 -227 -17z"/>
<path d="M1070 2780 l0 -200 419 0 418 0 5 51 c6 61 33 100 79 116 20 7 89 12
164 12 75 0 144 -5 164 -12 46 -16 73 -55 79 -116 l5 -51 193 0 194 0 0 54 c0
47 4 59 29 84 37 37 64 42 210 42 186 0 230 -23 239 -125 l4 -55 79 0 79 0 0
200 0 200 -227 -2 -228 -3 -5 -56 c-9 -104 -39 -119 -237 -119 -114 0 -155 4
-178 16 -27 14 -33 14 -65 -1 -30 -14 -65 -16 -193 -13 l-157 3 -31 32 c-27
26 -33 41 -37 88 l-5 56 -76 -3 -76 -3 -5 -56 c-9 -104 -39 -119 -235 -119
-168 0 -203 10 -229 65 -9 18 -16 51 -16 74 l0 41 -180 0 -180 0 0 -200z"/>
<path d="M1992 2678 c-8 -8 -12 -59 -12 -163 0 -104 4 -155 12 -163 17 -17
309 -17 326 0 17 17 17 309 0 326 -17 17 -309 17 -326 0z"/>
<path d="M2866 2674 c-13 -13 -16 -41 -16 -155 0 -78 5 -149 10 -160 10 -17
23 -19 165 -19 194 0 185 -9 185 175 0 183 8 175 -180 175 -122 0 -151 -3
-164 -16z"/>
<path d="M1070 2515 c0 -13 53 -15 420 -15 367 0 420 2 420 15 0 13 -53 15
-420 15 -367 0 -420 -2 -420 -15z"/>
<path d="M2400 2515 c0 -13 28 -15 195 -15 167 0 195 2 195 15 0 13 -28 15
-195 15 -167 0 -195 -2 -195 -15z"/>
<path d="M3270 2515 c0 -12 16 -15 80 -15 64 0 80 3 80 15 0 12 -16 15 -80 15
-64 0 -80 -3 -80 -15z"/>
<path d="M1070 2250 l0 -200 154 0 154 0 4 56 c4 46 10 61 37 87 l31 32 152 3
c120 3 160 0 193 -12 38 -15 45 -15 71 -1 43 22 302 21 350 -1 43 -21 64 -59
64 -119 l0 -45 125 0 125 0 0 45 c0 111 43 135 240 135 197 0 240 -24 240
-135 l0 -45 210 0 210 0 0 200 0 200 -79 0 -79 0 -4 -56 c-4 -46 -10 -61 -37
-87 l-31 -32 -147 -3 c-218 -6 -263 16 -263 124 l0 54 -195 0 -195 0 0 -37 c0
-54 -29 -105 -70 -125 -51 -26 -299 -26 -350 0 -41 20 -70 71 -70 125 l0 37
-420 0 -420 0 0 -200z"/>
<path d="M1456 2138 c-13 -18 -16 -51 -16 -153 0 -183 -8 -175 180 -175 122 0
151 3 164 16 13 13 16 41 16 155 0 78 -5 149 -10 160 -10 17 -23 19 -165 19
-148 0 -154 -1 -169 -22z"/>
<path d="M1876 2144 c-13 -13 -16 -42 -16 -158 0 -186 -10 -176 183 -176 119
0 148 3 161 16 13 13 16 42 16 159 0 117 -3 146 -16 159 -23 23 -305 23 -328
0z"/>
<path d="M2606 2144 c-13 -13 -16 -42 -16 -158 0 -186 -10 -176 182 -176 188
0 178 -10 178 178 0 114 -3 143 -16 156 -23 23 -305 23 -328 0z"/>
<path d="M1070 1985 c0 -13 24 -15 155 -15 131 0 155 2 155 15 0 13 -24 15
-155 15 -131 0 -155 -2 -155 -15z"/>
<path d="M2280 1985 c0 -13 21 -15 125 -15 104 0 125 2 125 15 0 13 -21 15
-125 15 -104 0 -125 -2 -125 -15z"/>
<path d="M3010 1985 c0 -13 30 -15 210 -15 180 0 210 2 210 15 0 13 -30 15
-210 15 -180 0 -210 -2 -210 -15z"/>
<path d="M1070 1720 l0 -200 74 0 74 0 4 56 c4 46 10 61 37 87 l31 32 156 3
c212 5 245 -10 254 -117 l5 -56 181 -3 181 -2 5 55 c4 47 10 62 37 88 l31 32
159 3 c211 4 244 -12 258 -127 l6 -52 101 3 101 3 5 56 c9 107 42 122 254 117
l156 -3 31 -32 c27 -26 33 -41 37 -87 l4 -56 89 0 89 0 0 200 0 200 -210 0
-210 0 0 -49 c0 -57 -25 -96 -76 -117 -46 -19 -282 -19 -328 0 -51 21 -76 60
-76 117 l0 49 -125 0 -125 0 0 -46 c0 -50 -20 -92 -54 -115 -15 -10 -63 -15
-169 -17 -131 -3 -152 -2 -187 16 -37 18 -41 18 -62 3 -17 -12 -53 -17 -146
-20 -158 -4 -205 3 -244 38 -26 23 -32 37 -36 84 l-4 57 -154 0 -154 0 0 -200z"/>
<path d="M1313 1625 c-22 -16 -23 -22 -23 -169 0 -105 4 -156 12 -164 8 -8 58
-12 159 -12 121 0 150 3 163 16 24 24 23 305 -1 325 -11 10 -55 15 -152 17
-112 2 -140 0 -158 -13z"/>
<path d="M2170 1627 c-25 -12 -25 -14 -28 -166 -2 -105 1 -158 9 -167 18 -22
302 -20 323 2 24 24 23 305 -1 325 -23 20 -268 25 -303 6z"/>
<path d="M2860 1627 c-25 -12 -25 -14 -28 -164 -2 -128 0 -154 13 -167 14 -13
42 -16 164 -16 101 0 151 4 159 12 8 8 12 59 12 164 0 129 -2 154 -17 165 -23
20 -268 25 -303 6z"/>
<path d="M1070 1460 c0 -18 7 -20 75 -20 68 0 75 2 75 20 0 18 -7 20 -75 20
-68 0 -75 -2 -75 -20z"/>
<path d="M1707 1473 c-4 -3 -7 -12 -7 -20 0 -10 38 -13 185 -13 178 0 185 1
185 20 0 19 -7 20 -178 20 -98 0 -182 -3 -185 -7z"/>
<path d="M2560 1460 c0 -19 6 -20 106 -20 95 0 105 2 102 18 -3 15 -17 17
-106 20 -97 3 -102 2 -102 -18z"/>
<path d="M3250 1460 c0 -19 7 -20 90 -20 83 0 90 1 90 20 0 19 -7 20 -90 20
-83 0 -90 -1 -90 -20z"/>
<path d="M722 1130 c-12 -5 -30 -25 -39 -45 -16 -33 -16 -37 0 -69 24 -51 59
-58 284 -54 187 3 192 4 217 27 44 41 33 111 -21 139 -26 14 -406 16 -441 2z"/>
<path d="M3335 1128 c-52 -30 -62 -99 -19 -139 25 -23 30 -24 217 -27 225 -4
260 3 284 54 16 32 16 36 0 69 -9 20 -28 40 -43 45 -37 14 -414 12 -439 -2z"/>
</g>
</svg>
